<svg width="375" height="812" viewBox="0 0 375 812" fill="none" xmlns="http://www.w3.org/2000/svg">
<g clip-path="url(#clip0_76_107)">
<path d="M96 0.00219727C107.461 14.8502 125.344 24.9448 144.196 24.997C152.323 25.0207 160.44 23.4221 168.543 24.053C179.767 24.9259 190.582 30.2483 198.115 38.6021C198.115 38.6021 203.311 48.3837 216.61 71.1536C229.91 93.9236 255.558 109.103 281.207 103.411C306.856 97.7186 316.289 104.379 316.289 104.379C325.166 109.573 332.561 118.591 332.732 128.866C332.898 138.761 326.558 147.594 324.9 157.347C322.174 173.391 333.312 189.647 348.207 196.241C356.676 199.989 365.99 201.056 375.252 200.226V0.00222168L96 0.00219727Z" fill="url(#paint0_linear_76_107)"/>
<path d="M374 812H150.13C146.024 798.271 145.878 783.003 150.164 769.325C156.704 748.457 173.345 731.991 192.59 727.349C216.938 721.478 242.767 733.542 266.925 726.737C283.96 721.938 298.1 708.089 308.05 691.825C314.859 680.688 320.048 668.239 328.035 658.143C339.853 643.209 356.405 635.055 374 630.603V812Z" fill="url(#paint1_linear_76_107)"/>
<path d="M-1 77.4974V102.527C10.7444 102.052 16.915 96.1933 28.6595 96.5759C38.4181 96.8969 47.5971 100.986 57.1715 102.847C72.3665 105.797 88.6668 102.877 101.804 94.8477C116.199 86.0528 126.169 71.9767 136.961 59.1626C147.753 46.3485 160.791 33.8906 177.424 30.5969C192.718 27.5671 213.294 31.6975 227.334 25.031C239.966 17.2116 247.695 9.44868 257 0.032959C257 0.032959 211.603 0.032959 195.422 0.032959H-1V77.4974Z" fill="url(#paint2_linear_76_107)"/>
<path d="M-1 533C15.8113 544.451 27.2409 562.317 27.2999 581.152C27.3268 589.272 25.5168 597.382 26.2311 605.477C27.2194 616.691 33.2457 627.496 42.704 635.023C42.704 635.023 53.7791 640.214 79.56 653.502C105.341 666.789 122.528 692.414 116.083 718.04C109.638 743.665 117.179 753.09 117.179 753.09C123.06 761.959 133.27 769.348 144.904 769.519C156.108 769.685 166.109 763.35 177.152 761.693C195.316 758.969 213.723 770.098 221.189 784.979C225.432 793.44 226.64 802.746 225.7 812H-0.999987L-1 533Z" fill="url(#paint3_linear_76_107)"/>
</g>
<defs>
<linearGradient id="paint0_linear_76_107" x1="218.312" y1="118.548" x2="448.839" y2="-127.468" gradientUnits="userSpaceOnUse">
<stop stop-color="white" stop-opacity="0.08"/>
<stop offset="1" stop-color="white" stop-opacity="0"/>
</linearGradient>
<linearGradient id="paint1_linear_76_107" x1="196.108" y1="700.42" x2="548.143" y2="788.575" gradientUnits="userSpaceOnUse">
<stop offset="0.016" stop-color="#FFD9E9" stop-opacity="0.08"/>
<stop offset="1" stop-color="white" stop-opacity="0.03"/>
</linearGradient>
<linearGradient id="paint2_linear_76_107" x1="87.4264" y1="25.7962" x2="71.2123" y2="127.192" gradientUnits="userSpaceOnUse">
<stop stop-color="white" stop-opacity="0.04"/>
<stop offset="1" stop-color="white" stop-opacity="0.08"/>
</linearGradient>
<linearGradient id="paint3_linear_76_107" x1="133.222" y1="655.202" x2="-112.649" y2="916.293" gradientUnits="userSpaceOnUse">
<stop stop-color="white" stop-opacity="0.08"/>
<stop offset="1" stop-color="white" stop-opacity="0"/>
</linearGradient>
<clipPath id="clip0_76_107">
<rect width="375" height="812" fill="white"/>
</clipPath>
</defs>
</svg>
