<svg width="67" height="67" viewBox="0 0 67 67" fill="none" xmlns="http://www.w3.org/2000/svg">
<mask id="mask0_72_37" style="mask-type:alpha" maskUnits="userSpaceOnUse" x="0" y="0" width="67" height="67">
<path d="M33.7116 66.5799C51.9546 66.5799 66.7435 51.791 66.7435 33.548C66.7435 15.305 51.9546 0.516113 33.7116 0.516113C15.4686 0.516113 0.679688 15.305 0.679688 33.548C0.679688 51.791 15.4686 66.5799 33.7116 66.5799Z" fill="#FFF4F4"/>
</mask>
<g mask="url(#mask0_72_37)">
<path d="M59.4809 56.2768V60.1654C59.4809 60.6032 59.1263 60.9577 58.6885 60.9577H29.767C29.3292 60.9577 28.9746 60.6032 28.9746 60.1654V56.2768C28.9746 53.8531 30.1424 51.7019 31.946 50.3548V24.8553C31.946 19.4127 36.3585 15.0002 41.8011 15.0002H46.7534C52.196 15.0002 56.6086 19.4127 56.6086 24.8553V50.4311C58.3557 51.7811 59.4809 53.8977 59.4809 56.2768Z" fill="#FFC09C"/>
<path d="M59.4809 56.2769V68.208C59.4809 68.6458 59.1263 69.0004 58.6885 69.0004H29.767C29.3292 69.0004 28.9746 68.6458 28.9746 68.208V56.2769C28.9746 52.2024 32.2772 48.891 36.3605 48.891C37.2668 48.891 38.1047 48.5978 38.7842 48.1006C38.7842 48.1006 38.8458 50.2732 39.3197 51.5524C40.2104 53.956 43.7424 56.4027 43.7424 56.4027C44.0287 56.6235 44.4268 56.6235 44.7131 56.4027C44.7131 56.4027 48.2382 53.954 49.1305 51.5524C49.6058 50.2734 49.6713 48.1006 49.6713 48.1006C50.3508 48.5978 51.1887 48.891 52.095 48.891C56.1638 48.891 59.4809 52.1896 59.4809 56.2769Z" fill="#7086E3"/>
<path d="M54.0346 35.0205V30.1362C54.0346 29.8032 53.8272 29.5054 53.514 29.3921C51.7905 28.7688 50.3354 27.5679 49.4 25.9637C49.1271 25.4956 48.4777 25.4271 48.1231 25.8368C44.8586 29.6088 40.358 32.1023 35.1215 32.7391C34.7231 32.7876 34.4234 33.1242 34.4234 33.5255V35.0203C34.4234 39.1079 36.9243 42.6112 40.4801 44.083L40.4653 44.1199V44.7963C40.4653 47.0641 38.6225 48.8909 36.3618 48.8909C34.7067 48.8909 33.1794 49.4357 31.9473 50.3548C31.9473 49.5641 31.9473 24.1049 31.9473 24.8553C31.9473 19.4125 36.3596 15.0002 41.8024 15.0002H46.7547C52.1975 15.0002 56.6098 19.4125 56.6098 24.8553V50.4311C55.3618 49.4654 53.7959 48.8909 52.0963 48.8909C49.838 48.8909 47.9928 47.0665 47.9928 44.7963V44.1199L47.9779 44.0832C51.5337 42.6114 54.0346 39.1081 54.0346 35.0205Z" fill="#163560"/>
<path d="M53.5105 29.3921C53.8237 29.5053 54.0311 29.8031 54.0311 30.1362V35.0205C54.0311 39.1082 51.5302 42.6114 47.9744 44.0833C41.5446 46.7522 34.4199 42.0107 34.4199 35.0204V33.5256C34.4199 33.1243 34.7196 32.7877 35.118 32.7393C40.3515 32.1028 44.8531 29.6111 48.1196 25.8369C48.4742 25.4272 49.1236 25.4957 49.3965 25.9638C50.3311 27.5667 51.7856 28.7683 53.5105 29.3921Z" fill="#FFC09C"/>
<path d="M48.101 45.7463C45.6608 46.7677 42.9791 46.847 40.3496 45.7463C40.4839 45.189 40.4615 44.8281 40.4615 44.1199L40.4764 44.0833C42.8616 45.0734 45.5843 45.0753 47.9742 44.0833L47.9891 44.1199C47.9891 44.8284 47.9667 45.1892 48.101 45.7463Z" fill="#FFB084"/>
<path d="M42.0456 41.2862C43.6984 42.3149 42.393 44.852 40.5861 44.1275C36.9183 42.6571 34.4199 39.0973 34.4199 35.0202V33.5256C34.4199 33.125 34.7183 32.7877 35.1161 32.7395C35.4915 32.6939 35.8795 32.6366 36.2777 32.5658C36.8501 32.4641 37.3886 32.8732 37.4388 33.4524C37.7521 37.0763 39.5876 39.7564 42.0456 41.2862Z" fill="#FFC09C"/>
<path d="M37.8962 56.6004V60.4112C37.8962 60.8402 37.5487 61.1877 37.1197 61.1877H8.77653C8.34749 61.1877 8 60.8402 8 60.4112V56.6004C8 52.6032 11.241 49.3622 15.2382 49.3622C17.464 49.3622 19.2596 47.564 19.2596 45.3495V44.6865L19.2742 44.6506C15.9895 43.2907 13.655 40.1817 13.3687 36.5301C12.3019 36.633 10.912 35.64 10.912 34.1064V25.8073C10.912 20.4735 15.2362 16.1492 20.57 16.1492H25.4233C30.7502 16.1492 35.0794 20.4638 35.0813 25.7908C35.0823 28.3679 34.8464 30.3626 36.5878 32.8552C36.945 33.3668 36.5917 34.0724 35.9675 34.0821C34.8309 34.0986 33.6904 34.0317 32.5576 33.8793V35.7691C32.5576 39.776 30.1057 43.2082 26.622 44.6506L26.6366 44.6865V45.3495C26.6366 47.5694 28.4381 49.3622 30.658 49.3622C34.6579 49.3622 37.8962 52.6068 37.8962 56.6004Z" fill="#FFAF83"/>
<path d="M37.8962 56.6001V65.9259C37.8962 66.3547 37.5485 66.7024 37.1197 66.7024H8.77653C8.34769 66.7024 8 66.3547 8 65.9259V56.6001C8 52.603 11.241 49.362 15.2382 49.362C15.4808 49.362 15.7196 49.3406 15.9506 49.2998L15.9594 49.3455C21.644 54.4463 29.5738 55.4797 36.4131 52.2108C37.3439 53.429 37.8962 54.95 37.8962 56.6001Z" fill="#9072E5"/>
<path d="M32.5549 35.7689C32.5549 41.078 28.2503 45.3784 22.9454 45.3784C17.627 45.3784 13.3359 41.064 13.3359 35.7689V30.9819C13.3359 30.6552 13.5406 30.3637 13.8479 30.2527C15.5313 29.6443 16.9723 28.4598 17.8901 26.8735C18.1531 26.4189 18.7901 26.3621 19.138 26.7556C22.5223 30.5822 27.1364 33.1543 32.5549 33.8791V35.7689Z" fill="#FFAF83"/>
<path d="M36.5856 32.8548C36.9432 33.3668 36.5903 34.0728 35.9659 34.0816C29.6204 34.1718 23.528 31.7184 19.1391 26.756C18.791 26.3624 18.1539 26.4192 17.8907 26.8739C16.9729 28.4604 15.5316 29.6446 13.8486 30.2529C13.5414 30.3639 13.3367 30.6562 13.3367 30.9828C13.3361 36.2363 13.3278 36.0484 13.3668 36.5301C12.3003 36.6333 10.9102 35.6399 10.9102 34.1064C10.9102 33.8312 10.9102 25.6007 10.9102 25.8073C10.9102 20.4733 15.2342 16.1492 20.5682 16.1492H25.4215C30.7489 16.1492 35.0775 20.4634 35.0795 25.7909C35.0805 28.3683 34.8442 30.3622 36.5856 32.8548Z" fill="#182038"/>
<path d="M26.7448 46.2802C24.3534 47.2812 21.7253 47.3588 19.1484 46.2802C19.2801 45.7341 19.2581 45.3804 19.2581 44.6863L19.2727 44.6504C21.6102 45.6207 24.2785 45.6226 26.6206 44.6504L26.6351 44.6863C26.6351 45.3807 26.6132 45.7343 26.7448 46.2802Z" fill="#FFA06C"/>
<path d="M23.3296 43.1025C24.6173 43.459 24.3593 45.368 23.0233 45.3785C17.6742 45.4212 13.3359 41.0955 13.3359 35.7694V30.9822C13.3359 30.656 13.5407 30.3638 13.8475 30.2532C14.0963 30.1631 14.3397 30.0606 14.577 29.9461C15.3495 29.5732 16.246 30.1293 16.2466 30.987C16.2472 31.677 16.2479 32.5974 16.2479 33.8281C16.2479 38.4191 19.377 42.0083 23.3296 43.1025Z" fill="#FFAF83"/>
</g>
</svg>
