<svg width="67" height="67" viewBox="0 0 67 67" fill="none" xmlns="http://www.w3.org/2000/svg">
<mask id="mask0_73_73" style="mask-type:alpha" maskUnits="userSpaceOnUse" x="0" y="0" width="67" height="67">
<path d="M33.7057 66.5799C51.9487 66.5799 66.7376 51.791 66.7376 33.548C66.7376 15.305 51.9487 0.516113 33.7057 0.516113C15.4627 0.516113 0.673798 15.305 0.673798 33.548C0.673798 51.791 15.4627 66.5799 33.7057 66.5799Z" fill="#FFF4F4"/>
</mask>
<g mask="url(#mask0_73_73)">
<path d="M22.0058 49.7637L53.3051 56.6792C53.3051 56.6792 58.2966 57.4017 57.9851 61.3248C57.6737 65.248 56.6328 67.2087 50.9135 67.7246C45.1942 68.2404 13.4785 67.0021 13.4785 67.0021L22.0058 49.7637Z" fill="#FFB1C7"/>
<path d="M49.2506 35.7165C49.2506 35.7165 56.3793 30.7111 53.6755 22.594C50.9718 14.4769 44.1355 13.8286 38.9403 16.1556C36.6075 17.401 34.3466 20.3216 34.3466 20.3216L31.0371 25.4446L48.746 35.8513L49.2506 35.7165Z" fill="#163560"/>
<path d="M51.3641 42.8588L48.683 35.647C48.683 35.647 48.4142 35.753 47.6468 35.0422C46.8776 34.3298 45.2159 32.5142 45.2159 32.5142C45.2159 32.5142 45.0722 32.1943 45.2159 31.9619C45.3596 31.7311 46.6731 29.7976 45.6808 27.982C44.6885 26.1664 42.1951 26.1126 41.8468 28.2498C41.2839 27.6351 34.206 20.5479 34.206 20.5479L33.4199 21.4388L34.8855 39.994C34.8855 39.994 35.7798 40.991 38.2462 40.4218C40.7125 39.8525 41.5341 39.6032 41.5341 39.6032L41.8198 42.2744L51.5061 43.2715L51.3641 42.8588Z" fill="#FFC09C"/>
<path d="M32.029 19.6701C32.029 19.6701 37.9852 25.9725 30.4335 35.5838C22.8818 45.1951 16.8571 40.2547 16.8571 40.2547C16.8571 40.2547 12.7122 36.6304 12.2077 31.9859C11.7033 27.3415 12.4958 20.2326 20.4243 17.6299C28.3528 15.0273 32.029 19.6701 32.029 19.6701Z" fill="#182038"/>
<path d="M31.2517 19.6201C31.2517 19.6201 34.0395 20.3692 34.9927 23.7584C35.9458 27.1476 35.9458 27.5035 35.9458 27.5035L38.5233 31.8206L37.0059 32.713C37.0059 32.713 38.348 38.2784 35.3816 39.6331C32.4169 40.9894 25.3574 41.4162 25.3574 41.4162L24.4393 33.9243C24.4393 33.9243 22.2859 31.9623 22.8501 30.1066C23.4143 28.2509 25.2506 27.3601 26.4859 29.2867C27.3322 26.5402 31.5671 24.7214 31.2517 19.6201Z" fill="#CE875F"/>
<path d="M49.622 20.007C51.4079 20.9479 53.6514 20.2002 54.6331 18.3369C55.6148 16.4736 54.9629 14.2003 53.177 13.2594C51.3911 12.3185 49.1475 13.0662 48.1659 14.9295C47.1842 16.7929 47.8361 19.0661 49.622 20.007Z" fill="#163560"/>
<path d="M25.5365 52.2705C25.5365 52.2705 23.7287 57.6083 20.8048 60.5323C14.3594 66.9776 9.83984 65.6493 9.83984 65.6493C9.83984 65.6493 11.4343 47.47 14.866 46.1267C17.3866 45.2679 25.5365 52.2705 25.5365 52.2705Z" fill="#182038"/>
<path d="M20.7259 37.7731L50.1628 42.3023C50.1628 42.3023 54.1867 42.86 55.5409 47.5338C56.8951 52.2076 57.5351 59.0389 57.5351 59.0389L49.3442 57.1687C49.3442 57.1687 33.8164 56.0176 25.2685 52.3521C16.7205 48.6865 12.2335 45.9526 12.0903 41.9266C11.9471 37.9006 18.1792 37.5027 20.7259 37.7731Z" fill="url(#paint0_linear_73_73)"/>
</g>
<defs>
<linearGradient id="paint0_linear_73_73" x1="36.7506" y1="37.7065" x2="36.6566" y2="59.0473" gradientUnits="userSpaceOnUse">
<stop stop-color="#FF58A4"/>
<stop offset="1" stop-color="#FF6B86"/>
</linearGradient>
</defs>
</svg>
