<svg width="164" height="112" viewBox="0 0 164 112" fill="none" xmlns="http://www.w3.org/2000/svg">
<path d="M32.4242 57.2414C30.5592 57.4033 28.8812 57.3141 27.3902 56.9738C25.8991 56.6334 24.4707 55.9615 23.1047 54.9578C22.3514 54.3969 21.9421 53.7408 21.8769 52.9897C21.8252 52.3939 22.0004 51.8567 22.4025 51.3782C22.8024 50.8737 23.3132 50.5945 23.9348 50.5405C24.427 50.4978 24.8808 50.615 25.2963 50.8921C26.4066 51.6569 27.4708 52.1909 28.4888 52.494C29.5069 52.7971 30.6893 52.8901 32.0363 52.7732C33.4868 52.6473 34.702 52.2156 35.6819 51.4781C36.6877 50.7383 37.149 49.8892 37.0658 48.9308C36.9646 47.7652 36.3679 46.9036 35.2756 46.346C34.181 45.7625 32.4923 45.4001 30.2096 45.259C24.4649 44.9226 21.3993 42.5268 21.0125 38.0715C20.8708 36.4397 21.1757 34.9909 21.927 33.7251C22.6761 32.4335 23.7619 31.4128 25.1844 30.663C26.6046 29.8872 28.2213 29.4207 30.0345 29.2632C31.6664 29.1216 33.216 29.235 34.6834 29.6035C36.1766 29.9697 37.4373 30.5127 38.4654 31.2325C39.2683 31.763 39.7035 32.4168 39.7709 33.1939C39.8227 33.7897 39.6486 34.3398 39.2487 34.8443C38.8466 35.3228 38.3477 35.588 37.7519 35.6397C37.3634 35.6734 37.0036 35.5872 36.6725 35.3811C35.9518 34.8956 34.9636 34.4855 33.708 34.1509C32.476 33.7881 31.3808 33.6482 30.4224 33.7314C28.7905 33.8731 27.5483 34.2941 26.6957 34.9945C25.8667 35.6667 25.4949 36.4949 25.5804 37.4792C25.6771 38.5931 26.2035 39.3955 27.1595 39.8867C28.1415 40.3756 29.6325 40.7159 31.6326 40.9077C33.8939 41.1028 35.7121 41.4539 37.0871 41.9609C38.4858 42.4397 39.5679 43.1809 40.3336 44.1844C41.097 45.1621 41.554 46.5186 41.7047 48.2541C41.8463 49.886 41.5049 51.364 40.6803 52.6883C39.8794 53.9844 38.7441 55.0356 37.2743 55.8417C35.8022 56.6219 34.1855 57.0885 32.4242 57.2414ZM63.7776 26.6863C64.4511 26.6279 65.0141 26.8008 65.4668 27.2052C65.9195 27.6096 66.1762 28.1614 66.2369 28.8608L67.4579 42.9259C67.6445 45.0758 67.3565 47.019 66.5938 48.7555C65.8311 50.4919 64.6743 51.8972 63.1234 52.9714C61.5725 54.0456 59.748 54.6737 57.6499 54.8558C55.5518 55.038 53.6333 54.7347 51.8946 53.9462C50.1818 53.1553 48.8002 51.9704 47.7497 50.3913C46.6992 48.8123 46.0806 46.9478 45.894 44.7979L44.673 30.7328C44.6145 30.0593 44.7993 29.4821 45.2273 29.0013C45.6531 28.4946 46.2286 28.2098 46.9539 28.1468C47.5755 28.0928 48.1397 28.2787 48.6464 28.7045C49.1509 29.1044 49.4324 29.641 49.4908 30.3145L50.7118 44.3796C50.8198 45.6229 51.1884 46.7131 51.8178 47.6502C52.445 48.5614 53.2344 49.2367 54.1859 49.676C55.1634 50.1131 56.1831 50.2856 57.2451 50.1934C58.3589 50.0967 59.3725 49.7477 60.286 49.1465C61.2253 48.543 61.9383 47.7373 62.4249 46.7294C62.9353 45.6934 63.1365 44.5537 63.0285 43.3104L61.8075 29.2453C61.7468 28.5459 61.8916 27.9592 62.2419 27.4851C62.5922 27.0111 63.1041 26.7448 63.7776 26.6863ZM83.0944 25.0486C84.4154 24.9339 85.7065 25.2263 86.9678 25.9259C88.2267 26.5995 89.2773 27.5783 90.1195 28.8623C90.9595 30.1204 91.448 31.5394 91.5852 33.1195C91.7201 34.6737 91.4834 36.1557 90.8751 37.5656C90.2667 38.9755 89.4016 40.1336 88.2798 41.04C87.1558 41.9206 85.9332 42.4182 84.6122 42.5328L77.8516 43.1197L78.4891 50.4631C78.5498 51.1625 78.3921 51.7503 78.0158 52.2266C77.6396 52.703 77.1148 52.9704 76.4413 53.0288C75.7938 53.085 75.2436 52.911 74.791 52.5066C74.3361 52.0763 74.0794 51.5245 74.0209 50.851L72.0714 28.3934C72.0129 27.72 72.1847 27.144 72.5868 26.6654C73.0126 26.1587 73.5622 25.8761 74.2357 25.8176L83.0944 25.0486ZM84.2277 38.1035C84.7198 38.0608 85.181 37.8119 85.6113 37.357C86.0675 36.8999 86.4099 36.3351 86.6386 35.6628C86.891 34.9624 86.9857 34.2495 86.9227 33.5242C86.8598 32.799 86.6448 32.1261 86.2777 31.5055C85.9343 30.8567 85.4997 30.3595 84.9738 30.0136C84.4716 29.6397 83.9744 29.4741 83.4823 29.5168L76.7217 30.1037L77.4671 38.6904L84.2277 38.1035ZM112.636 45.3849C113.309 45.3264 113.886 45.5112 114.367 45.9392C114.872 46.3391 115.15 46.8369 115.202 47.4327C115.258 48.0802 115.071 48.6315 114.641 49.0864C114.236 49.5391 113.697 49.7946 113.024 49.8531L100.008 50.983C99.3342 51.0415 98.7453 50.8708 98.2408 50.4709C97.76 50.0429 97.4903 49.4921 97.4319 48.8187L95.4823 26.3611C95.4239 25.6877 95.5957 25.1116 95.9978 24.6331C96.4236 24.1264 96.9732 23.8438 97.6467 23.7853L110.663 22.6554C111.336 22.5969 111.912 22.7687 112.391 23.1709C112.893 23.5448 113.173 24.0685 113.232 24.742C113.288 25.3896 113.114 25.9397 112.71 26.3924C112.303 26.8191 111.75 27.0629 111.051 27.1236L100.521 28.0376L101.095 34.6428L109.876 33.8805C110.549 33.822 111.125 33.9939 111.604 34.396C112.106 34.77 112.386 35.2937 112.445 35.9671C112.501 36.6147 112.327 37.1648 111.922 37.6175C111.516 38.0443 110.963 38.288 110.263 38.3487L101.482 39.111L102.106 46.299L112.636 45.3849ZM140.873 43.5992C141.227 43.7771 141.51 44.0266 141.721 44.3476C141.957 44.6664 142.091 45.0071 142.122 45.3697C142.163 45.8359 142.045 46.2768 141.767 46.6924C141.419 47.1923 140.844 47.4772 140.041 47.5469C139.419 47.6008 138.837 47.5079 138.294 47.2679C136.337 46.3678 135.217 44.2859 134.933 41.0221C134.853 40.0897 134.478 39.3784 133.809 38.8884C133.166 38.3962 132.274 38.1995 131.135 38.2985L123.869 38.9292L124.523 46.4669C124.584 47.1662 124.439 47.753 124.089 48.227C123.765 48.6989 123.291 48.9617 122.67 49.0157C121.919 49.0809 121.239 48.9181 120.631 48.5272C120.047 48.1082 119.725 47.5619 119.667 46.8885L117.717 24.4309C117.659 23.7575 117.83 23.1815 118.233 22.7029C118.658 22.1962 119.208 21.9136 119.881 21.8551L131.071 20.8837C132.418 20.7668 133.719 21.0192 134.973 21.6411C136.228 22.2629 137.26 23.1781 138.069 24.3866C138.905 25.5929 139.391 26.986 139.528 28.5661C139.641 29.8612 139.401 31.1608 138.81 32.4648C138.216 33.743 137.394 34.793 136.343 35.615C138.074 36.613 139.1 38.0637 139.422 39.967C139.536 40.3747 139.609 40.7728 139.643 41.1614C139.816 41.9553 139.971 42.5292 140.106 42.8828C140.239 43.2105 140.494 43.4493 140.873 43.5992ZM132.031 34.1886C132.497 34.1481 132.931 33.8886 133.333 33.41C133.735 32.9315 134.047 32.3172 134.269 31.5672C134.489 30.7913 134.562 29.9759 134.488 29.1211C134.425 28.3958 134.225 27.7477 133.888 27.1767C133.549 26.5797 133.144 26.1191 132.672 25.7947C132.2 25.4703 131.731 25.3283 131.265 25.3688L122.756 26.1074L123.522 34.9273L132.031 34.1886ZM62.4483 82.7875C63.1218 82.729 63.6978 82.9009 64.1764 83.303C64.6786 83.6769 64.959 84.2007 65.0174 84.8741C65.0736 85.5217 64.8877 86.0859 64.4597 86.5667C64.0554 87.0194 63.5164 87.2749 62.843 87.3334L50.2155 88.4296C49.542 88.4881 48.953 88.3174 48.4486 87.9175C47.9677 87.4895 47.6981 86.9387 47.6396 86.2653L45.6901 63.8077C45.6316 63.1342 45.8164 62.5571 46.2444 62.0763C46.6702 61.5696 47.2457 61.2847 47.971 61.2218C48.6186 61.1655 49.1957 61.3503 49.7024 61.7761C50.2069 62.176 50.4884 62.7126 50.5468 63.3861L52.3075 83.6678L62.4483 82.7875ZM74.3137 83.9497C74.3722 84.6231 74.1756 85.2144 73.7239 85.7233C73.27 86.2064 72.7192 86.476 72.0717 86.5323C71.3723 86.593 70.7704 86.4234 70.2659 86.0235C69.7851 85.5955 69.5155 85.0448 69.457 84.3713L67.5075 61.9137C67.449 61.2403 67.6338 60.6631 68.0618 60.1823C68.4876 59.6756 69.0631 59.3908 69.7884 59.3278C70.4359 59.2716 71.0131 59.4564 71.5198 59.8821C72.0243 60.282 72.3057 60.8187 72.3642 61.4921L74.3137 83.9497ZM100.838 79.9638C101.011 80.1576 101.163 80.4053 101.294 80.7072C101.422 80.9831 101.497 81.2506 101.52 81.5096C101.581 82.209 101.359 82.8154 100.856 83.3289C100.378 83.8401 99.7897 84.1261 99.0903 84.1868C98.7536 84.216 98.423 84.1664 98.0987 84.038C97.7744 83.9095 97.4963 83.7118 97.2643 83.4449L87.8684 73.0646L84.4842 76.9207L85.0137 83.0208C85.0744 83.7202 84.8908 84.3103 84.4628 84.7911C84.0606 85.2697 83.4969 85.5404 82.7717 85.6034C82.0723 85.6641 81.4704 85.4945 80.9659 85.0947C80.4851 84.6666 80.2154 84.1159 80.157 83.4424L78.2074 60.9849C78.149 60.3114 78.3338 59.7343 78.7618 59.2535C79.1876 58.7467 79.7631 58.4619 80.4883 58.3989C81.1877 58.3382 81.7767 58.5089 82.2553 58.911C82.7338 59.3132 83.0035 59.8639 83.0642 60.5633L83.9816 71.1315L95.3524 57.8132C95.8964 57.1657 96.5052 56.8128 97.1786 56.7543C97.7744 56.7026 98.3009 56.9048 98.758 57.361C99.2152 57.8172 99.4674 58.3172 99.5146 58.8612C99.5618 59.4051 99.3726 59.9305 98.9468 60.4372L91.1782 69.2541L100.838 79.9638ZM120.821 77.7985C121.494 77.74 122.072 77.9248 122.552 78.3528C123.057 78.7527 123.335 79.2505 123.387 79.8462C123.443 80.4938 123.256 81.045 122.826 81.5C122.421 81.9526 121.882 82.2082 121.209 82.2667L108.193 83.3966C107.519 83.455 106.93 83.2843 106.426 82.8845C105.945 82.4565 105.675 81.9057 105.617 81.2322L103.667 58.7747C103.609 58.1012 103.781 57.5252 104.183 57.0466C104.609 56.5399 105.158 56.2573 105.832 56.1989L118.848 55.0689C119.521 55.0105 120.097 55.1823 120.576 55.5844C121.078 55.9584 121.358 56.4821 121.417 57.1556C121.473 57.8031 121.299 58.3533 120.895 58.8059C120.488 59.2327 119.935 59.4764 119.236 59.5371L108.706 60.4512L109.28 67.0564L118.061 66.2941C118.734 66.2356 119.31 66.4074 119.789 66.8096C120.291 67.1835 120.571 67.7072 120.63 68.3807C120.686 69.0283 120.512 69.5784 120.107 70.0311C119.701 70.4578 119.148 70.7016 118.448 70.7623L109.668 71.5246L110.291 78.7125L120.821 77.7985Z" fill="white"/>
<path d="M141.641 3.20341L14.1205 14.2735C7.51792 14.8466 2.63011 20.6637 3.20328 27.2663L9.25722 97.004C9.83039 103.607 15.6475 108.494 22.2501 107.921L149.77 96.8512C156.373 96.278 161.261 90.4609 160.688 83.8584L154.634 14.1206C154.061 7.51805 148.243 2.63024 141.641 3.20341Z" stroke="white" stroke-width="4"/>
</svg>
